<?xml version="1.0" encoding="utf-8"?>
<!-- Generator: Adobe Illustrator 21.0.0, SVG Export Plug-In . SVG Version: 6.00 Build 0)  -->
<svg version="1.1" id="图层_1" xmlns="http://www.w3.org/2000/svg" xmlns:xlink="http://www.w3.org/1999/xlink" x="0px" y="0px"
	 viewBox="0 0 512 512" style="enable-background:new 0 0 512 512;" xml:space="preserve">
<style type="text/css">
	.st0{fill:#F7B239;}
	.st1{fill:#F95428;}
	.st2{fill:#E09B2D;}
	.st3{fill:#E54728;}
	.st4{fill:#FFFFFF;}
	.st5{fill:#333333;}
</style>
<path class="st0" d="M269.3,253.9V483h-26.5V253.9c4.4,0.5,8.8,0.8,13.2,0.8S264.9,254.4,269.3,253.9z"/>
<path class="st1" d="M146.5,169.3h219c-11.2,44.9-49.4,79.1-96.3,84.6c-4.4,0.5-8.8,0.8-13.2,0.8c-4.5,0-8.9-0.3-13.2-0.8
	C195.9,248.4,157.8,214.2,146.5,169.3z"/>
<path class="st2" d="M269.3,253.9v27.5c-4.4,0.5-8.8,0.8-13.2,0.8c-4.5,0-8.9-0.2-13.2-0.8v-27.5c4.4,0.5,8.8,0.8,13.2,0.8
	C260.5,254.6,264.9,254.4,269.3,253.9z"/>
<path class="st1" d="M365.5,169.3H146c-7.6,0-13.7-6.2-13.7-13.7V128c0-7.6,6.2-13.7,13.7-13.7h220c7.6,0,13.7,6.2,13.7,13.7v27.6
	c0,7.6-6.2,13.7-13.7,13.7C366,169.3,365.5,169.3,365.5,169.3z M365.5,114.3H146.6c12.3-49.1,56.6-85.4,109.5-85.4
	C308.9,28.9,353.3,65.3,365.5,114.3z"/>
<path class="st3" d="M210,169.3h-63.5c11.2,44.9,49.4,79.1,96.3,84.6c4.4,0.5,8.8,0.8,13.2,0.8c4.5,0,8.9-0.3,13.2-0.8
	c6.4-0.8,12.5-2,18.5-3.8C249.5,239,219.7,208.1,210,169.3z M220.1,155.5V128c0-7.6,10.8-13.7,24.2-13.7h-87.8
	c-13.4,0-24.2,6.2-24.2,13.7v27.6c0,7.6,10.8,13.7,24.2,13.7h87.8C231,169.3,220.1,163.2,220.1,155.5z"/>
<path class="st3" d="M287.8,33.5c-10.1-2.9-20.7-4.5-31.7-4.5c-52.9,0-97.2,36.3-109.5,85.4H210C219.7,75.4,249.5,44.6,287.8,33.5z"
	/>
<path class="st4" d="M328.6,98.8c-2.6,0-5-1.3-6.5-3.4c-7.2-10.3-16.9-18.8-27.9-24.7c-3.9-2.1-5.3-6.9-3.3-10.7
	c2.1-3.9,6.9-5.3,10.7-3.3c13.3,7.1,24.8,17.3,33.5,29.6c2.5,3.6,1.6,8.5-2,11.1C331.7,98.3,330.1,98.8,328.6,98.8L328.6,98.8z
	 M284.7,233.5c-3.3,0-6.4-2.1-7.5-5.3c-1.4-4.1,0.8-8.7,4.9-10.1c15.7-5.4,29.8-15.9,39.6-29.5c2.6-3.5,7.5-4.4,11.1-1.9
	c3.5,2.6,4.4,7.5,1.9,11.1c-11.7,16.3-28.5,28.8-47.3,35.3C286.4,233.4,285.5,233.5,284.7,233.5L284.7,233.5z M355.4,157.3
	c-4.4,0-7.9-3.5-7.9-7.9v-13.7c0-4.4,3.5-7.9,7.9-7.9s7.9,3.5,7.9,7.9v13.7C363.4,153.8,359.8,157.3,355.4,157.3z"/>
<path class="st4" d="M266.3,55.1c0,4.4,3.6,7.9,7.9,7.9c4.4,0,7.9-3.6,7.9-7.9c0-4.4-3.6-7.9-7.9-7.9
	C269.9,47.2,266.3,50.7,266.3,55.1z"/>
<path class="st5" d="M371.8,107.1C356.6,56.2,309.8,21,256,21s-100.6,35.2-115.8,86.2c-9.1,2.5-15.9,10.9-15.9,20.9v27.6
	c0,10,6.8,18.3,15.9,20.9c13.2,44.2,50,76.4,94.6,84.3v222.3c0,4.4,3.5,7.9,7.9,7.9h26.5c4.4,0,7.9-3.5,7.9-7.9V260.7
	c44.5-7.8,81.5-40.1,94.6-84.3c9.1-2.5,15.9-10.9,15.9-20.9V128C387.7,118.1,380.9,109.7,371.8,107.1z M146,161.4
	c-3.2,0-5.8-2.6-5.8-5.8V128c0-3.2,2.6-5.8,5.8-5.8h220c3.2,0,5.8,2.6,5.8,5.8v27.6c0,3.2-2.6,5.8-5.8,5.8
	C366.1,161.4,146,161.4,146,161.4z M256,36.8c44.8,0,84,28.1,98.8,69.5H157.3C172,65,211.3,36.8,256,36.8z M261.3,475h-10.6V262.5
	c1.7,0.1,3.5,0.1,5.3,0.1c1.7,0,3.5-0.1,5.3-0.1L261.3,475L261.3,475z M256,246.7c-44.8,0-84-28.1-98.8-69.5h197.6
	C340,218.6,300.8,246.7,256,246.7z"/>
</svg>
